<?xml version="1.0" encoding="utf-8" ?><svg xmlns="http://www.w3.org/2000/svg" xmlns:xlink="http://www.w3.org/1999/xlink" width="1056" height="1056" viewBox="0 0 1056 1056"><defs><linearGradient id="gradient_0" gradientUnits="userSpaceOnUse" x1="157.85089" y1="495.74078" x2="588.91064" y2="660.74023"><stop offset="0" stop-color="#FF8E0C"/><stop offset="1" stop-color="#FC5722"/></linearGradient></defs><path fill="url(#gradient_0)" d="M8.97793 888.198C11.6631 872.823 19.4553 856.296 25.2144 841.643C33.2972 821.078 41.7522 800.59 49.9032 780.049C57.7368 760.308 64.4782 739.971 72.0844 720.247C79.9313 699.898 89.0285 679.59 97.4173 659.473L142.408 550.396L229.666 333.808L270.384 232.358C273.243 225.046 291.671 174.219 295.419 171.17C304.18 169.131 317.915 169.505 327.117 169.408C369.541 168.962 411.963 170.574 454.402 169.567C461.9 169.389 472.049 168.977 479.317 170.426C483.525 173.903 498.301 214.042 500.956 220.83L527.92 288.84C554.405 353.984 582.598 420.381 607.415 486.01C613.367 501.874 618.949 517.875 624.157 533.998C625.613 538.429 631.206 553.246 629.936 557.268C627.609 559.901 619.224 560.149 615.669 560.329C587.797 561.739 559.765 561.829 531.868 562.224C517.431 562.486 502.992 562.595 488.553 562.551C480.665 562.545 472.617 562.774 464.75 562.246C461.587 562.034 456.113 561.582 453.423 559.883C446.977 555.812 410.36 446.067 405.049 431.693C401.885 423.131 398.223 414.719 394.716 406.292C392.211 400.272 389.981 394.034 386.942 388.261C373.388 416.895 363.16 448.944 351.916 478.484C340.902 507.415 330.195 536.408 319.32 565.365C303.321 607.312 287.074 649.165 270.58 690.92C250.475 741.206 229.728 791.044 211.648 842.145C206.754 855.981 201.5 869.657 195.899 883.221C194.293 887.033 192.058 889.465 187.847 889.538C183.822 890.172 170.083 889.666 165.46 889.611C152.926 889.508 140.39 889.479 127.855 889.523L55.4289 889.952C47.8558 889.952 29.578 890.383 23.0393 889.497C17.6232 889.548 14.2504 889.627 8.97793 888.198Z"/><path fill="#DA3709" d="M23.0393 889.497C34.2625 888.36 51.9935 888.79 63.7313 889.04C74.3002 889.266 84.281 887.024 93.7732 887.185C121.189 887.649 148.485 887.12 175.871 888.401C178.908 888.57 185.316 888.765 187.847 889.538C183.822 890.172 170.083 889.666 165.46 889.611C152.926 889.508 140.39 889.479 127.855 889.523L55.4289 889.952C47.8558 889.952 29.578 890.383 23.0393 889.497Z"/><path fill="#FC441D" d="M569.837 172.783C579.857 172.63 590.883 173.108 601.133 173.122L692.955 173.163L733.709 173.104C739.882 173.083 752.573 172.7 758.031 173.635C762.371 179.544 773.905 211.865 777.609 221.198L823.535 336.62C838.954 375.385 855.455 413.915 870.734 452.656L960.361 683.136C970.351 708.252 980.785 732.225 991.587 756.954C1000.01 776.242 1007.13 797.165 1015.15 816.692C1019.89 828.216 1025.11 839.696 1029.97 851.214C1034.27 859.428 1042.76 879.777 1044.57 888.594C1038.12 890.336 1024.63 890.615 1017.64 890.456C977.16 891.845 936.411 891.475 895.898 893.353C882.917 893.954 869.299 894.536 856.353 894.022L856.222 893.922C851.618 890.45 849.703 886.221 847.506 881.028C844.981 876.644 840.661 864.942 838.655 859.759C833.076 845.222 827.609 830.642 822.255 816.02C810.652 784.826 798.468 753.852 785.709 723.113C764.472 670.582 742.14 618.177 720.657 565.704C696.044 505.587 674.13 444.665 649.723 384.555C630.457 337.604 611.796 290.406 593.744 242.975C587.582 226.639 581.267 210.294 576.156 193.612C574.181 187.166 571.103 179.237 569.837 172.783Z"/><path fill="#C8060F" d="M1029.97 851.214C1034.27 859.428 1042.76 879.777 1044.57 888.594C1038.12 890.336 1024.63 890.615 1017.64 890.456C977.16 891.845 936.411 891.475 895.898 893.353C882.917 893.954 869.299 894.536 856.353 894.022L856.222 893.922C851.618 890.45 849.703 886.221 847.506 881.028C852.034 884.502 851.316 891.511 858.887 890.609C864.198 889.977 868.904 887.803 874.184 887.328C888.577 886.707 903.349 887.364 917.773 887.128L989.227 886.61C996.813 886.602 1007.88 885.901 1014.7 886.193C1001.44 889.637 969.597 888.234 954.491 888.51C967.562 889.767 978.817 889.903 991.812 889.381C999.912 889.056 1009.35 889.756 1017.68 889.742C1023.27 887.146 1033.97 892.693 1037.9 886.058C1044.31 875.254 1030.62 861.717 1029.97 851.214Z"/><path fill="#FC441D" d="M396.842 627.277C403.416 625.895 425.835 625.644 433.51 625.457C465.045 624.725 496.591 624.513 528.134 624.819L566.56 624.908C573.77 624.927 583.442 624.744 590.436 625.379C594.505 625.143 612.729 625.279 616.73 625.888C624.698 625.814 656.983 625.698 661.807 629.763C669.577 636.31 678.53 668.714 683.133 679.733C684.818 683.767 691.479 700.178 692.098 703.365C704.569 733.174 716.886 765.206 728.516 795.369L737.977 819.966C738.644 821.734 741.573 829.482 741.861 830.992C746.832 841.189 758.489 876.618 760.379 887.25C759.75 888.685 759.416 888.964 757.927 889.494C752.584 891.391 665.972 894.21 658.127 893.106C650.984 893.607 643.272 893.367 636.075 893.345C619.638 893.294 603.182 893.766 586.754 893.597C585.391 893.583 581.509 893.023 580.615 892.088C575.11 886.334 569.087 871.96 567.337 864.744C560.909 847.421 555.783 827.77 549.917 810.103C546.151 798.763 544.469 788.837 538.638 777.998C528.305 775.453 501.582 775.011 490.726 774.708C458.527 773.81 426.13 774.384 393.922 774.595C378.49 774.695 362.774 775.092 347.352 774.674C345.125 774.614 340.7 774.052 338.86 772.896C338.596 759.486 381.265 648.638 389.474 636.418C390.213 634.737 391.422 633.096 392.463 631.554C394.099 629.422 394.721 628.971 396.842 627.277Z"/><defs><linearGradient id="gradient_1" gradientUnits="userSpaceOnUse" x1="505.36844" y1="624.95081" x2="505.25705" y2="632.11084"><stop offset="0" stop-color="#BF2D00"/><stop offset="1" stop-color="#DA4305"/></linearGradient></defs><path fill="url(#gradient_1)" d="M396.842 627.277C403.416 625.895 425.835 625.644 433.51 625.457C465.045 624.725 496.591 624.513 528.134 624.819L566.56 624.908C573.77 624.927 583.442 624.744 590.436 625.379C585.107 625.925 578.955 626.089 573.562 626.301C575.131 626.828 599.676 628.576 600.176 628.419C604.441 630.693 602.305 627.959 606.244 630.041C606.098 630.52 605.953 630.999 605.808 631.479C606.476 631.693 607.191 631.94 607.862 632.127C596.699 631.5 585.514 631.375 574.34 631.755C567.178 631.951 559.46 632.546 552.387 632.53L508.132 632.08C494.426 632.024 480.792 632.98 466.813 632.335C453.196 631.708 439.813 631.387 426.175 630.514C420.078 630.124 409.199 631.275 402.711 631.18C399.726 631.136 395.122 631.957 392.463 631.554C394.099 629.422 394.721 628.971 396.842 627.277Z"/><path fill="#DA3709" d="M741.861 830.992C746.832 841.189 758.489 876.618 760.379 887.25C759.75 888.685 759.416 888.964 757.927 889.494C752.584 891.391 665.972 894.21 658.127 893.106C650.984 893.607 643.272 893.367 636.075 893.345C619.638 893.294 603.182 893.766 586.754 893.597C585.391 893.583 581.509 893.023 580.615 892.088C575.11 886.334 569.087 871.96 567.337 864.744C571.162 868.643 577.503 886.036 581.898 888.016C582.383 888.235 606.348 886.772 608.615 886.587C617.253 885.879 628.161 887.319 635.921 887.045C656.107 886.333 674.624 886.104 694.987 886.159C709.44 886.198 729.175 888.265 744.204 886.981C749.255 886.549 752.583 885.261 756.376 882.282C759.215 873.835 743.779 842.805 741.921 831.409C741.899 831.27 741.881 831.131 741.861 830.992Z"/><path fill="#C8060F" d="M760.379 887.25C759.75 888.685 759.416 888.964 757.927 889.494C752.584 891.391 665.972 894.21 658.127 893.106C656.443 892.512 650.807 892.451 648.662 892.329C639.812 891.772 630.948 891.445 622.08 891.348C616.958 891.296 599.152 891.952 596.101 891.045C607.147 889.706 620.015 890.414 631.248 890.118C642.706 889.815 654.56 888.287 665.919 888.423C695.624 888.779 725.234 887.68 754.945 888.388C756.974 888.436 758.56 888.194 760.379 887.25Z"/><path fill="#DA3709" d="M392.463 631.554C395.122 631.957 399.726 631.136 402.711 631.18C409.199 631.275 420.078 630.124 426.175 630.514C439.813 631.387 453.196 631.708 466.813 632.335C480.792 632.98 494.426 632.024 508.132 632.08L552.387 632.53C559.46 632.546 567.178 631.951 574.34 631.755C585.514 631.375 596.699 631.5 607.862 632.127C612.268 633.753 628.672 632.91 634.324 633.966C635.376 634.163 641.715 632.263 643.024 632.378C646.545 632.688 654.426 631.036 657.379 631.611L657.785 632.284C656.912 632.832 654.737 632.75 653.027 633.288C641.242 636.995 628.325 633.696 616.231 634.024C599.225 635.187 582.764 635.759 565.693 635.472C555.463 635.299 546.486 635.705 536.248 634.495L537.783 634.446C534.443 633.914 533.521 634.039 530.269 634.318L532.776 635.028C531.268 635.829 478.736 635.486 474.751 634.355L481.344 634.164C479.563 633.655 475.214 633.535 473.135 633.429C452.706 632.394 432.172 635.908 411.775 635.425C409.425 635.37 408.54 633.18 404.376 632.689L404.218 632.945C406.051 633.84 406.452 633.673 407.466 635.108C404.219 636.849 396.616 633.692 392.4 634.378C392.236 634.404 389.799 636.18 389.474 636.418C390.213 634.737 391.422 633.096 392.463 631.554Z"/><path fill="#DA3709" d="M590.436 625.379C594.505 625.143 612.729 625.279 616.73 625.888C624.698 625.814 656.983 625.698 661.807 629.763C669.577 636.31 678.53 668.714 683.133 679.733C684.818 683.767 691.479 700.178 692.098 703.365L691.447 703.508C689.95 701.619 687.947 695.165 686.486 691.759C678.095 672.196 673.447 650.523 663.063 632.052C662.087 630.893 656.304 628.273 655.161 628.555C641.91 631.824 631.297 627.595 618.409 626.845C612.599 626.507 606.935 628.906 600.195 628.044L600.176 628.419C599.676 628.576 575.131 626.828 573.562 626.301C578.955 626.089 585.107 625.925 590.436 625.379Z"/></svg>